<svg id="visual" viewBox="0 0 900 600" width="900" height="600" xmlns="http://www.w3.org/2000/svg" xmlns:xlink="http://www.w3.org/1999/xlink" version="1.1"><rect x="0" y="0" width="900" height="600" fill="#212020"></rect><path d="M0 425L21.5 421C43 417 86 409 128.8 410.5C171.7 412 214.3 423 257.2 429.5C300 436 343 438 385.8 424.2C428.7 410.3 471.3 380.7 514.2 380C557 379.3 600 407.7 642.8 416.7C685.7 425.7 728.3 415.3 771.2 401.8C814 388.3 857 371.7 878.5 363.3L900 355L900 601L878.5 601C857 601 814 601 771.2 601C728.3 601 685.7 601 642.8 601C600 601 557 601 514.2 601C471.3 601 428.7 601 385.8 601C343 601 300 601 257.2 601C214.3 601 171.7 601 128.8 601C86 601 43 601 21.5 601L0 601Z" fill="#7fd576"></path><path d="M0 398L21.5 405C43 412 86 426 128.8 439.2C171.7 452.3 214.3 464.7 257.2 457.8C300 451 343 425 385.8 418.2C428.7 411.3 471.3 423.7 514.2 436.3C557 449 600 462 642.8 458.8C685.7 455.7 728.3 436.3 771.2 435.2C814 434 857 451 878.5 459.5L900 468L900 601L878.5 601C857 601 814 601 771.2 601C728.3 601 685.7 601 642.8 601C600 601 557 601 514.2 601C471.3 601 428.7 601 385.8 601C343 601 300 601 257.2 601C214.3 601 171.7 601 128.8 601C86 601 43 601 21.5 601L0 601Z" fill="#62cc58"></path><path d="M0 479L21.5 481.8C43 484.7 86 490.3 128.8 485.5C171.7 480.7 214.3 465.3 257.2 463.2C300 461 343 472 385.8 478.8C428.7 485.7 471.3 488.3 514.2 482.5C557 476.7 600 462.3 642.8 460C685.7 457.7 728.3 467.3 771.2 472.5C814 477.7 857 478.3 878.5 478.7L900 479L900 601L878.5 601C857 601 814 601 771.2 601C728.3 601 685.7 601 642.8 601C600 601 557 601 514.2 601C471.3 601 428.7 601 385.8 601C343 601 300 601 257.2 601C214.3 601 171.7 601 128.8 601C86 601 43 601 21.5 601L0 601Z" fill="#3fc236"></path><path d="M0 509L21.5 509.3C43 509.7 86 510.3 128.8 510C171.7 509.7 214.3 508.3 257.2 507.5C300 506.7 343 506.3 385.8 511.2C428.7 516 471.3 526 514.2 524.5C557 523 600 510 642.8 503.5C685.7 497 728.3 497 771.2 502.2C814 507.3 857 517.7 878.5 522.8L900 528L900 601L878.5 601C857 601 814 601 771.2 601C728.3 601 685.7 601 642.8 601C600 601 557 601 514.2 601C471.3 601 428.7 601 385.8 601C343 601 300 601 257.2 601C214.3 601 171.7 601 128.8 601C86 601 43 601 21.5 601L0 601Z" fill="#36a830"></path><path d="M0 551L21.5 550.3C43 549.7 86 548.3 128.8 552C171.7 555.7 214.3 564.3 257.2 565.3C300 566.3 343 559.7 385.8 556.8C428.7 554 471.3 555 514.2 552.2C557 549.3 600 542.7 642.8 545.7C685.7 548.7 728.3 561.3 771.2 566.8C814 572.3 857 570.7 878.5 569.8L900 569L900 601L878.5 601C857 601 814 601 771.2 601C728.3 601 685.7 601 642.8 601C600 601 557 601 514.2 601C471.3 601 428.7 601 385.8 601C343 601 300 601 257.2 601C214.3 601 171.7 601 128.8 601C86 601 43 601 21.5 601L0 601Z" fill="#2e8e29"></path></svg>