<svg id="visual" viewBox="0 0 900 600" width="900" height="600" xmlns="http://www.w3.org/2000/svg" xmlns:xlink="http://www.w3.org/1999/xlink" version="1.1"><rect x="0" y="0" width="900" height="600" fill="#212020"></rect><path d="M0 474L21.5 477.3C43 480.7 86 487.3 128.8 473.5C171.7 459.7 214.3 425.3 257.2 406.2C300 387 343 383 385.8 384.5C428.7 386 471.3 393 514.2 407.5C557 422 600 444 642.8 449C685.7 454 728.3 442 771.2 430.2C814 418.3 857 406.7 878.5 400.8L900 395L900 601L878.5 601C857 601 814 601 771.2 601C728.3 601 685.7 601 642.8 601C600 601 557 601 514.2 601C471.3 601 428.7 601 385.8 601C343 601 300 601 257.2 601C214.3 601 171.7 601 128.8 601C86 601 43 601 21.5 601L0 601Z" fill="#3FC236" stroke-linecap="round" stroke-linejoin="miter"></path></svg>